<svg xmlns="http://www.w3.org/2000/svg" xmlns:xlink="http://www.w3.org/1999/xlink" width="165" zoomAndPan="magnify" viewBox="0 0 123.75 36.000001" height="48" preserveAspectRatio="xMidYMid meet" version="1.0"><defs><g/><clipPath id="647dfa7bc4"><path d="M 1.550781 5.542969 L 26.363281 5.542969 L 26.363281 29.621094 L 1.550781 29.621094 Z M 1.550781 5.542969 " clip-rule="nonzero"/></clipPath></defs><g clip-path="url(#647dfa7bc4)"><path fill="#ff8000" d="M 19.574219 24.117188 L 18.359375 22.90625 C 18.128906 22.671875 18.128906 22.300781 18.359375 22.066406 L 19.929688 20.5 C 20.160156 20.269531 20.160156 19.894531 19.929688 19.664062 C 19.695312 19.433594 19.324219 19.433594 19.089844 19.664062 L 16.289062 22.464844 C 16 22.753906 15.53125 22.753906 15.242188 22.464844 C 14.953125 22.175781 14.953125 21.710938 15.242188 21.421875 L 19.929688 16.738281 C 20.160156 16.503906 20.160156 16.132812 19.929688 15.898438 C 19.695312 15.667969 19.324219 15.667969 19.089844 15.898438 L 9.058594 25.933594 C 8.769531 26.222656 8.300781 26.222656 8.011719 25.933594 C 7.722656 25.644531 7.722656 25.175781 8.011719 24.886719 L 16.164062 16.738281 C 16.394531 16.503906 16.394531 16.132812 16.164062 15.898438 C 15.933594 15.667969 15.558594 15.667969 15.328125 15.898438 L 12.148438 19.078125 C 11.917969 19.308594 11.542969 19.308594 11.3125 19.078125 L 11.101562 18.871094 C 10.871094 18.636719 10.871094 18.265625 11.101562 18.03125 L 16.164062 12.972656 C 16.394531 12.742188 16.394531 12.367188 16.164062 12.136719 C 15.933594 11.902344 15.558594 11.902344 15.328125 12.136719 L 3.402344 24.0625 C 3.117188 24.351562 2.648438 24.351562 2.359375 24.0625 C 2.070312 23.773438 2.070312 23.304688 2.359375 23.015625 L 12.402344 12.972656 C 12.632812 12.742188 12.632812 12.367188 12.402344 12.136719 C 12.167969 11.90625 11.796875 11.90625 11.566406 12.136719 L 9.996094 13.707031 C 9.765625 13.9375 9.390625 13.9375 9.160156 13.707031 L 7.945312 12.492188 C 7.636719 12.179688 7.761719 11.652344 8.179688 11.511719 L 25.617188 5.699219 C 26.082031 5.542969 26.519531 5.984375 26.367188 6.445312 L 20.554688 23.886719 C 20.414062 24.304688 19.882812 24.429688 19.574219 24.117188 Z M 10.042969 20.140625 C 9.753906 19.851562 9.289062 19.851562 9 20.140625 L 1.839844 27.300781 C 1.550781 27.589844 1.550781 28.054688 1.839844 28.34375 C 2.128906 28.632812 2.597656 28.632812 2.882812 28.34375 L 10.042969 21.183594 C 10.332031 20.894531 10.332031 20.429688 10.042969 20.140625 Z M 14.226562 23.484375 C 13.9375 23.195312 13.46875 23.195312 13.179688 23.484375 L 8.527344 28.136719 C 8.238281 28.425781 8.238281 28.894531 8.527344 29.183594 C 8.816406 29.472656 9.28125 29.472656 9.570312 29.183594 L 14.226562 24.527344 C 14.515625 24.242188 14.515625 23.773438 14.226562 23.484375 Z M 7.558594 26.359375 C 7.277344 26.078125 6.820312 26.078125 6.539062 26.359375 C 6.257812 26.640625 6.257812 27.097656 6.539062 27.378906 C 6.820312 27.660156 7.277344 27.660156 7.558594 27.378906 C 7.839844 27.097656 7.839844 26.640625 7.558594 26.359375 Z M 7.558594 26.359375 " fill-opacity="1" fill-rule="nonzero"/></g><g fill="#ffffff" fill-opacity="1"><g transform="translate(32.777845, 25.625993)"><g><path d="M 5.046875 0.109375 C 4.273438 0.109375 3.585938 -0.0507812 2.984375 -0.375 C 2.390625 -0.695312 1.921875 -1.140625 1.578125 -1.703125 C 1.234375 -2.265625 1.0625 -2.894531 1.0625 -3.59375 L 1.0625 -10.515625 C 1.0625 -11.222656 1.234375 -11.851562 1.578125 -12.40625 C 1.921875 -12.957031 2.390625 -13.394531 2.984375 -13.71875 C 3.585938 -14.050781 4.273438 -14.21875 5.046875 -14.21875 C 5.765625 -14.21875 6.425781 -14.050781 7.03125 -13.71875 C 7.632812 -13.394531 8.117188 -12.953125 8.484375 -12.390625 C 8.847656 -11.835938 9.03125 -11.203125 9.03125 -10.484375 L 9.03125 -10.234375 L 7.046875 -10.234375 L 7.046875 -10.484375 C 7.046875 -10.984375 6.941406 -11.378906 6.734375 -11.671875 C 6.535156 -11.960938 6.28125 -12.164062 5.96875 -12.28125 C 5.65625 -12.40625 5.347656 -12.46875 5.046875 -12.46875 C 4.566406 -12.46875 4.113281 -12.300781 3.6875 -11.96875 C 3.257812 -11.644531 3.046875 -11.101562 3.046875 -10.34375 L 3.046875 -3.75 C 3.046875 -2.988281 3.257812 -2.445312 3.6875 -2.125 C 4.113281 -1.800781 4.566406 -1.640625 5.046875 -1.640625 C 5.347656 -1.640625 5.65625 -1.695312 5.96875 -1.8125 C 6.28125 -1.9375 6.535156 -2.144531 6.734375 -2.4375 C 6.941406 -2.738281 7.046875 -3.132812 7.046875 -3.625 L 7.046875 -3.875 L 9.03125 -3.875 L 9.03125 -3.625 C 9.03125 -2.925781 8.847656 -2.289062 8.484375 -1.71875 C 8.117188 -1.144531 7.632812 -0.695312 7.03125 -0.375 C 6.425781 -0.0507812 5.765625 0.109375 5.046875 0.109375 Z M 5.046875 0.109375 "/></g></g></g><g fill="#ffffff" fill-opacity="1"><g transform="translate(42.304094, 25.625993)"><g><path d="M 4.78125 0.109375 C 4.113281 0.109375 3.5 -0.03125 2.9375 -0.3125 C 2.375 -0.59375 1.921875 -0.984375 1.578125 -1.484375 C 1.234375 -1.984375 1.0625 -2.566406 1.0625 -3.234375 L 1.0625 -7 C 1.0625 -7.6875 1.222656 -8.296875 1.546875 -8.828125 C 1.867188 -9.367188 2.304688 -9.796875 2.859375 -10.109375 C 3.421875 -10.421875 4.0625 -10.578125 4.78125 -10.578125 C 5.507812 -10.578125 6.144531 -10.421875 6.6875 -10.109375 C 7.226562 -9.796875 7.65625 -9.367188 7.96875 -8.828125 C 8.28125 -8.296875 8.4375 -7.6875 8.4375 -7 L 8.4375 -4.5 L 3.046875 -4.5 L 3.046875 -3.453125 C 3.046875 -2.941406 3.203125 -2.507812 3.515625 -2.15625 C 3.835938 -1.8125 4.257812 -1.640625 4.78125 -1.640625 C 5.125 -1.640625 5.453125 -1.738281 5.765625 -1.9375 C 6.078125 -2.132812 6.296875 -2.398438 6.421875 -2.734375 L 8.375 -2.734375 C 8.300781 -2.140625 8.082031 -1.628906 7.71875 -1.203125 C 7.351562 -0.773438 6.90625 -0.445312 6.375 -0.21875 C 5.851562 0 5.320312 0.109375 4.78125 0.109375 Z M 3.046875 -6.25 L 6.46875 -6.25 L 6.46875 -7.078125 C 6.46875 -7.578125 6.3125 -7.992188 6 -8.328125 C 5.695312 -8.660156 5.28125 -8.828125 4.75 -8.828125 C 4.238281 -8.828125 3.828125 -8.660156 3.515625 -8.328125 C 3.203125 -7.992188 3.046875 -7.578125 3.046875 -7.078125 Z M 3.046875 -6.25 "/></g></g></g><g fill="#ffffff" fill-opacity="1"><g transform="translate(51.807605, 25.625993)"><g><path d="M 4.1875 0.109375 C 3.414062 0.109375 2.78125 -0.046875 2.28125 -0.359375 C 1.78125 -0.679688 1.40625 -1.085938 1.15625 -1.578125 C 0.90625 -2.078125 0.75 -2.578125 0.6875 -3.078125 L 2.53125 -3.078125 C 2.5625 -2.484375 2.738281 -2.070312 3.0625 -1.84375 C 3.382812 -1.613281 3.738281 -1.5 4.125 -1.5 C 4.625 -1.5 5.003906 -1.585938 5.265625 -1.765625 C 5.535156 -1.953125 5.671875 -2.257812 5.671875 -2.6875 C 5.671875 -3.050781 5.503906 -3.351562 5.171875 -3.59375 C 4.847656 -3.832031 4.445312 -4.054688 3.96875 -4.265625 C 3.488281 -4.484375 3.007812 -4.726562 2.53125 -5 C 2.050781 -5.28125 1.648438 -5.628906 1.328125 -6.046875 C 1.003906 -6.460938 0.84375 -6.988281 0.84375 -7.625 C 0.84375 -8.332031 1.007812 -8.898438 1.34375 -9.328125 C 1.6875 -9.765625 2.113281 -10.082031 2.625 -10.28125 C 3.144531 -10.476562 3.65625 -10.578125 4.15625 -10.578125 C 4.945312 -10.578125 5.582031 -10.410156 6.0625 -10.078125 C 6.539062 -9.753906 6.894531 -9.347656 7.125 -8.859375 C 7.363281 -8.378906 7.5 -7.890625 7.53125 -7.390625 L 5.78125 -7.390625 C 5.71875 -7.972656 5.519531 -8.378906 5.1875 -8.609375 C 4.851562 -8.847656 4.535156 -8.96875 4.234375 -8.96875 C 4.140625 -8.96875 3.976562 -8.9375 3.75 -8.875 C 3.519531 -8.820312 3.304688 -8.707031 3.109375 -8.53125 C 2.921875 -8.351562 2.828125 -8.054688 2.828125 -7.640625 C 2.828125 -7.328125 2.988281 -7.046875 3.3125 -6.796875 C 3.632812 -6.546875 4.035156 -6.296875 4.515625 -6.046875 C 4.992188 -5.804688 5.472656 -5.535156 5.953125 -5.234375 C 6.429688 -4.941406 6.832031 -4.59375 7.15625 -4.1875 C 7.476562 -3.78125 7.640625 -3.28125 7.640625 -2.6875 C 7.640625 -2.351562 7.539062 -1.960938 7.34375 -1.515625 C 7.144531 -1.078125 6.796875 -0.695312 6.296875 -0.375 C 5.796875 -0.0507812 5.09375 0.109375 4.1875 0.109375 Z M 4.1875 0.109375 "/></g></g></g><g fill="#ffffff" fill-opacity="1"><g transform="translate(60.03792, 25.625993)"><g><path d="M 4.203125 0.109375 C 3.296875 0.109375 2.546875 -0.15625 1.953125 -0.6875 C 1.359375 -1.226562 1.0625 -2.050781 1.0625 -3.15625 L 1.0625 -7.296875 C 1.0625 -8.421875 1.359375 -9.25 1.953125 -9.78125 C 2.546875 -10.3125 3.296875 -10.578125 4.203125 -10.578125 C 4.492188 -10.578125 4.820312 -10.539062 5.1875 -10.46875 C 5.550781 -10.40625 6.019531 -10.160156 6.59375 -9.734375 L 6.84375 -10.46875 L 8.578125 -10.46875 L 8.578125 0 L 6.84375 0 L 6.59375 -0.734375 C 6.019531 -0.304688 5.550781 -0.0625 5.1875 0 C 4.820312 0.0703125 4.492188 0.109375 4.203125 0.109375 Z M 4.78125 -1.640625 C 5.3125 -1.640625 5.742188 -1.796875 6.078125 -2.109375 C 6.421875 -2.421875 6.59375 -2.851562 6.59375 -3.40625 L 6.59375 -7.046875 C 6.59375 -7.628906 6.421875 -8.070312 6.078125 -8.375 C 5.742188 -8.675781 5.3125 -8.828125 4.78125 -8.828125 C 4.34375 -8.828125 3.941406 -8.675781 3.578125 -8.375 C 3.222656 -8.082031 3.046875 -7.640625 3.046875 -7.046875 L 3.046875 -3.40625 C 3.046875 -2.820312 3.222656 -2.378906 3.578125 -2.078125 C 3.941406 -1.785156 4.34375 -1.640625 4.78125 -1.640625 Z M 4.78125 -1.640625 "/></g></g></g><g fill="#ffffff" fill-opacity="1"><g transform="translate(69.79153, 25.625993)"><g><path d="M 1.1875 0 L 1.1875 -10.46875 L 2.90625 -10.46875 L 3.15625 -8.78125 C 3.519531 -9.28125 3.890625 -9.644531 4.265625 -9.875 C 4.648438 -10.101562 5.019531 -10.253906 5.375 -10.328125 C 5.738281 -10.398438 6.0625 -10.445312 6.34375 -10.46875 L 6.59375 -10.46875 L 6.59375 -8.6875 L 6.296875 -8.6875 C 6.023438 -8.6875 5.710938 -8.628906 5.359375 -8.515625 C 5.003906 -8.398438 4.660156 -8.207031 4.328125 -7.9375 C 3.992188 -7.675781 3.710938 -7.320312 3.484375 -6.875 C 3.265625 -6.425781 3.15625 -5.878906 3.15625 -5.234375 L 3.15625 0 Z M 1.1875 0 "/></g></g></g><g fill="#ffffff" fill-opacity="1"><g transform="translate(76.589499, 25.625993)"><g><path d="M 4.03125 0.140625 C 3.363281 0.140625 2.75 0.00390625 2.1875 -0.265625 C 1.632812 -0.546875 1.195312 -0.929688 0.875 -1.421875 C 0.550781 -1.910156 0.390625 -2.472656 0.390625 -3.109375 L 0.390625 -3.703125 L 2.359375 -3.703125 L 2.359375 -3.390625 C 2.359375 -2.890625 2.507812 -2.472656 2.8125 -2.140625 C 3.125 -1.804688 3.53125 -1.640625 4.03125 -1.640625 C 4.53125 -1.640625 4.9375 -1.804688 5.25 -2.140625 C 5.570312 -2.484375 5.734375 -2.929688 5.734375 -3.484375 L 5.734375 -14.0625 L 7.71875 -14.0625 L 7.71875 -3.109375 C 7.71875 -2.472656 7.550781 -1.910156 7.21875 -1.421875 C 6.882812 -0.929688 6.4375 -0.546875 5.875 -0.265625 C 5.320312 0.00390625 4.707031 0.140625 4.03125 0.140625 Z M 4.03125 0.140625 "/></g></g></g><g fill="#ffffff" fill-opacity="1"><g transform="translate(85.479149, 25.625993)"><g/></g></g><g fill="#ffffff" fill-opacity="1"><g transform="translate(89.68525, 25.625993)"><g><path d="M 1.1875 0 L 1.1875 -14.0625 L 5.171875 -14.0625 C 5.921875 -14.0625 6.59375 -13.894531 7.1875 -13.5625 C 7.78125 -13.238281 8.25 -12.796875 8.59375 -12.234375 C 8.945312 -11.671875 9.125 -11.035156 9.125 -10.328125 L 9.125 -3.703125 C 9.125 -2.992188 8.945312 -2.359375 8.59375 -1.796875 C 8.25 -1.234375 7.78125 -0.789062 7.1875 -0.46875 C 6.59375 -0.15625 5.921875 0 5.171875 0 Z M 3.15625 -1.75 L 5.140625 -1.75 C 5.628906 -1.75 6.082031 -1.90625 6.5 -2.21875 C 6.925781 -2.539062 7.140625 -3.082031 7.140625 -3.84375 L 7.140625 -10.21875 C 7.140625 -10.976562 6.925781 -11.515625 6.5 -11.828125 C 6.082031 -12.148438 5.628906 -12.3125 5.140625 -12.3125 L 3.15625 -12.3125 Z M 3.15625 -1.75 "/></g></g></g><g fill="#ffffff" fill-opacity="1"><g transform="translate(99.757159, 25.625993)"><g><path d="M 4.78125 0.109375 C 4.113281 0.109375 3.5 -0.03125 2.9375 -0.3125 C 2.375 -0.59375 1.921875 -0.984375 1.578125 -1.484375 C 1.234375 -1.984375 1.0625 -2.566406 1.0625 -3.234375 L 1.0625 -7 C 1.0625 -7.6875 1.222656 -8.296875 1.546875 -8.828125 C 1.867188 -9.367188 2.304688 -9.796875 2.859375 -10.109375 C 3.421875 -10.421875 4.0625 -10.578125 4.78125 -10.578125 C 5.507812 -10.578125 6.144531 -10.421875 6.6875 -10.109375 C 7.226562 -9.796875 7.65625 -9.367188 7.96875 -8.828125 C 8.28125 -8.296875 8.4375 -7.6875 8.4375 -7 L 8.4375 -4.5 L 3.046875 -4.5 L 3.046875 -3.453125 C 3.046875 -2.941406 3.203125 -2.507812 3.515625 -2.15625 C 3.835938 -1.8125 4.257812 -1.640625 4.78125 -1.640625 C 5.125 -1.640625 5.453125 -1.738281 5.765625 -1.9375 C 6.078125 -2.132812 6.296875 -2.398438 6.421875 -2.734375 L 8.375 -2.734375 C 8.300781 -2.140625 8.082031 -1.628906 7.71875 -1.203125 C 7.351562 -0.773438 6.90625 -0.445312 6.375 -0.21875 C 5.851562 0 5.320312 0.109375 4.78125 0.109375 Z M 3.046875 -6.25 L 6.46875 -6.25 L 6.46875 -7.078125 C 6.46875 -7.578125 6.3125 -7.992188 6 -8.328125 C 5.695312 -8.660156 5.28125 -8.828125 4.75 -8.828125 C 4.238281 -8.828125 3.828125 -8.660156 3.515625 -8.328125 C 3.203125 -7.992188 3.046875 -7.578125 3.046875 -7.078125 Z M 3.046875 -6.25 "/></g></g></g><g fill="#ffffff" fill-opacity="1"><g transform="translate(109.26067, 25.625993)"><g><path d="M 2.828125 0 L 0.390625 -10.46875 L 2.40625 -10.46875 L 4.375 -1.5625 L 6.328125 -10.46875 L 8.34375 -10.46875 L 5.921875 0 Z M 2.828125 0 "/></g></g></g></svg>